<svg xmlns="http://www.w3.org/2000/svg" width="245.747" height="253.161" viewBox="0 0 245.747 253.161">
  <g>
    <circle cx="122.873" cy="122.873" r="122.873" fill="#c48400"/>
    <circle cx="122.873" cy="122.873" r="113.424" fill="#ffac00"/>
    <circle cx="122.873" cy="122.873" r="102.477" fill="#ffde00"/>
    <g>
      <g>
        <path d="M193.86,184.264c-.48-6.77-2.89-13.92-7.16-21.29a69.509,69.509,0,0,0-8.24-11.15c-14.23-15.78-35.8-25.26-57.69-25.35a73.084,73.084,0,0,0-54.06,23.69,64.514,64.514,0,0,0-7.88,10.75c-5.14,9.09-7.36,17.05-6.97,25.09a7.859,7.859,0,0,0,3.51,6.11,8.437,8.437,0,0,0,7.29.92c4.04-.95,7.35-1.59,9.76-2.05,1.67-.3,5.87-1.04,8.9-1.49,15.36-2.31,27.55-3.72,40.9-3.61,14.42.08,33.96,2.59,53.52,6.87l2.31.58.12.02c.85.17,1.75.44,2.71.72a29.323,29.323,0,0,0,4.59,1.09l.18.02c.15,0,.29.01.44.01a7.847,7.847,0,0,0,7.81-7.41v-.02A32.053,32.053,0,0,0,193.86,184.264Zm-4.96,3.25a2.785,2.785,0,0,1-.93,1.95,2.815,2.815,0,0,1-1.96.73,27.138,27.138,0,0,1-3.72-.91c-1-.3-2.03-.6-3.08-.82l-2.33-.58c-19.96-4.37-39.88-6.92-54.63-7-13.64-.09-26.07,1.32-41.67,3.67-3.09.46-7.35,1.21-9.06,1.51-3.73.71-6.85,1.36-10.12,2.13l-.26.07a3.415,3.415,0,0,1-3.01-.32,2.787,2.787,0,0,1-1.28-2.22c-.34-7.02,1.68-14.12,6.32-22.32a59.356,59.356,0,0,1,7.25-9.89,68.1,68.1,0,0,1,50.33-22.04c20.51.09,40.69,8.95,54,23.7a64.872,64.872,0,0,1,7.64,10.33c3.88,6.68,6.06,13.11,6.48,19.08A29.183,29.183,0,0,1,188.9,187.514Z" fill="#ffac00"/>
        <path d="M188.9,187.514a2.785,2.785,0,0,1-.93,1.95,2.815,2.815,0,0,1-1.96.73,27.138,27.138,0,0,1-3.72-.91c-1-.3-2.03-.6-3.08-.82l-2.33-.58c-19.96-4.37-39.88-6.92-54.63-7-13.64-.09-26.07,1.32-41.67,3.67-3.09.46-7.35,1.21-9.06,1.51-3.73.71-6.85,1.36-10.12,2.13l-.26.07a3.415,3.415,0,0,1-3.01-.32,2.787,2.787,0,0,1-1.28-2.22c-.34-7.02,1.68-14.12,6.32-22.32a59.356,59.356,0,0,1,7.25-9.89,68.1,68.1,0,0,1,50.33-22.04c20.51.09,40.69,8.95,54,23.7a64.872,64.872,0,0,1,7.64,10.33c3.88,6.68,6.06,13.11,6.48,19.08A29.183,29.183,0,0,1,188.9,187.514Z"/>
      </g>
      <path d="M175.142,155.573l-1.246-.32c-16.735-3.75-36.846-6.84-52.657-6.93-13.622-.12-26.144,1.46-40.164,3.63-2.559.4-6.169,1.03-8.728,1.5-.768.15-1.547.31-2.325.47a67.9,67.9,0,0,1,50.789-22.87A73.177,73.177,0,0,1,175.142,155.573Z" fill="#fff"/>
    </g>
    <g>
      <g>
        <path d="M95.064,219.392,93.144,97.171,58.593,94.506,44.549,209.051c-1.092,4.406-3.245,8.443-7.269,10.124-5.251,2.194-11.486.911-16.052-2.528a2.119,2.119,0,0,0-3.416,1.632A30.741,30.741,0,0,0,30.27,243.714c8.208,5.874,19.891,8.379,29.315,4.91a7.414,7.414,0,0,1,6.363.6c5.875,3.543,12.764,4.288,19.9,3.808a33.556,33.556,0,0,0,19.968-8.466,2.563,2.563,0,0,0-.015-3.873C99.568,235.526,96.032,227.548,95.064,219.392Z" fill="#0cf"/>
        <path d="M74.3,108.405c-.951-2.382-2.322-4.577-4.886-4.656l-.056,0a8.458,8.458,0,0,0-8.463,7.66c-2.031,18.716-9.957,90.828-12.208,97.58-3.7,14.052-12.472,17.767-21.784,14.421a1.466,1.466,0,0,0-1.919,1.692c3.03,13,22.753,17.481,33.326,6.609C75.286,214.249,77.328,115.988,74.3,108.405Z" fill="#8feaff"/>
        <path d="M53.4,207.247c-1.584,9.636-8.717,23.64-20.659,20.365a.727.727,0,0,0-.739,1.2c2.1,2.164,5.721,5.195,9.65,5.371,6.09.273,12.828-2.088,16.513-11.056a29.267,29.267,0,0,0,2.568-12.166c-.339-5.842-3.375-5.513-4.592-5.7h0A2.409,2.409,0,0,0,53.4,207.247Z" fill="#fff"/>
      </g>
      <g>
        <path d="M155.478,219.392,157.4,97.171l34.551-2.665,14.044,114.545c1.092,4.406,3.245,8.443,7.269,10.124,5.251,2.194,11.486.911,16.052-2.528a2.119,2.119,0,0,1,3.416,1.632,30.741,30.741,0,0,1-12.458,25.435c-8.208,5.874-19.891,8.379-29.315,4.91a7.414,7.414,0,0,0-6.363.6c-5.875,3.543-12.764,4.288-19.9,3.808a33.556,33.556,0,0,1-19.968-8.466,2.563,2.563,0,0,1,.015-3.873C150.974,235.526,154.51,227.548,155.478,219.392Z" fill="#0cf"/>
        <path d="M176.244,108.405c.951-2.382,2.322-4.577,4.886-4.656l.055,0a8.459,8.459,0,0,1,8.464,7.66c2.031,18.716,9.957,90.828,12.208,97.58,3.7,14.052,12.472,17.767,21.784,14.421a1.466,1.466,0,0,1,1.919,1.692c-3.03,13-22.753,17.481-33.326,6.609C175.256,214.249,173.214,115.988,176.244,108.405Z" fill="#8feaff"/>
        <path d="M197.147,207.247c1.584,9.636,8.717,23.64,20.659,20.365a.727.727,0,0,1,.739,1.2c-2.1,2.164-5.721,5.195-9.65,5.371-6.09.273-12.828-2.088-16.513-11.056a29.267,29.267,0,0,1-2.568-12.166c.339-5.842,3.374-5.513,4.592-5.7h0A2.409,2.409,0,0,1,197.147,207.247Z" fill="#fff"/>
      </g>
    </g>
    <g>
      <path d="M47.621,104.836c5.5-21.671,33.9-27.642,48.7-11.253a27.134,27.134,0,0,1,7.291,17.887,4.559,4.559,0,0,1-8.878,1.478c-3.166-7.818-9.81-13.732-17.971-14.663s-15.859,3.237-20.853,10.047a4.578,4.578,0,0,1-8.293-3.5Z"/>
      <path d="M194.2,108.332c-7.337-10.344-21.4-13.815-31.43-5.532a25.343,25.343,0,0,0-7.515,10.44,4.553,4.553,0,0,1-8.757-1.77,27.134,27.134,0,0,1,7.291-17.887c9.18-10.38,26.117-12.522,37.5-4.525a26.581,26.581,0,0,1,11.2,15.778,4.57,4.57,0,0,1-8.293,3.5Z"/>
      <path d="M39.581,83.54a4.5,4.5,0,0,1-1.69-8.673L80.554,57.6a4.5,4.5,0,0,1,3.377,8.343L41.268,83.21A4.486,4.486,0,0,1,39.581,83.54Z"/>
      <path d="M206.165,83.54a4.485,4.485,0,0,1-1.686-.33L161.817,65.942a4.5,4.5,0,0,1,3.377-8.343l42.662,17.268a4.5,4.5,0,0,1-1.691,8.673Z"/>
    </g>
  </g>
</svg>
